<?xml version="1.0" encoding="utf-8"?>
<!-- Generator: Adobe Illustrator 20.1.0, SVG Export Plug-In . SVG Version: 6.00 Build 0)  -->
<svg version="1.1" id="wt-logo" xmlns="http://www.w3.org/2000/svg" xmlns:xlink="http://www.w3.org/1999/xlink" x="0px" y="0px"
	 viewBox="0 0 169 169" style="enable-background:new 0 0 169 169;" xml:space="preserve">
<style type="text/css">
	.st0{fill:#1BD9C4;}
</style>
<path class="st0" d="M161.6,49.9C148,19.6,117.7,0,84.5,0c-8.7,0-17.3,1.4-25.6,4l7,14.8c6-1.7,12.2-2.6,18.5-2.6
	c12.7,0,24.8,3.6,35.3,9.9l-18.8,66.8L80.7,50.2L62.9,93.1l-13-30.6l-8.1,17.2L61.9,127l19-42l23.9,51.1l31.9-95.6
	c4.1,4.8,7.5,10.2,10.2,16.1c7.5,16.6,8,35.2,1.5,52.2c-5,13-13.6,24-24.8,31.8l7,14.8c15-9.7,26.5-23.9,33-40.9
	C171.5,93.4,170.8,70.5,161.6,49.9"/>
<path class="st0" d="M110.1,147.8c-33.8,13.7-72.8-1.7-87.9-35.3c-7.5-16.6-8-35.2-1.5-52.2c5.9-15.6,17.1-28.2,31.7-36L45.5,9.6
	C27.1,19.2,13,35,5.5,54.5c-8,21.1-7.3,44,1.9,64.6C21.5,150.4,52.3,169,84.6,169c10.8,0,21.8-2.1,32.4-6.5L110.1,147.8z"/>
</svg>
