<?xml version="1.0" encoding="UTF-8"?>
<svg width="449px" height="449px" viewBox="0 0 449 449" version="1.1" xmlns="http://www.w3.org/2000/svg" xmlns:xlink="http://www.w3.org/1999/xlink">
    <!-- Generator: sketchtool 41.2 (35397) - http://www.bohemiancoding.com/sketch -->
    <title>78AF3AF0-63D8-443C-910D-74261D5C6C72</title>
    <desc>Created with sketchtool.</desc>
    <defs>
        <linearGradient x1="26.9818346%" y1="5.7732461%" x2="73.8359549%" y2="94.7304774%" id="linearGradient-1">
            <stop stop-color="#EEEEEE" offset="0%"></stop>
            <stop stop-color="#EEEEEE" stop-opacity="0" offset="100%"></stop>
        </linearGradient>
    </defs>
    <g id="Symbols" stroke="none" stroke-width="1" fill="none" fill-rule="evenodd">
        <g id="Superlative---light-bk-and-logo-" transform="translate(-496.000000, -91.000000)" fill="url(#linearGradient-1)">
            <g id="Quotes" transform="translate(324.000000, 91.000000)">
                <g id="Group-17">
                    <g id="logo-dark" transform="translate(172.000000, 0.000000)">
                        <path d="M429.180913,132.580821 C393.040288,52.0363923 312.694684,0 224.466515,0 C201.278343,0 178.564841,3.58941403 156.628991,10.6165767 L175.262344,50.0394648 C191.239561,45.4895034 207.711647,43.13869 224.466515,43.13869 C258.17319,43.13869 290.410406,52.6379984 318.173597,69.4324116 L268.297817,246.941574 L214.47823,133.344203 L167.096997,247.452181 L132.456129,166.149425 L111,211.85126 L164.339867,337.500973 L214.690317,225.920752 L278.089164,361.742157 L362.903743,107.5257 C373.689879,120.265592 382.839916,134.582804 389.874133,150.259949 C409.709312,194.460296 411.173722,243.756601 393.974481,289.053995 C380.809941,323.734812 357.869203,352.874787 328.03564,373.561945 L346.663943,413 C386.536289,387.237107 417.076809,349.603871 434.255851,304.372198 C455.535241,248.301507 453.727452,187.291579 429.180913,132.580821 Z M293.661558,392.531759 C203.511075,428.99503 99.5661879,387.927683 59.3798451,298.694617 C39.4641752,254.444892 38.0086628,205.125624 55.26181,159.798242 C71.0594447,118.341319 100.828984,84.8023952 139.701816,64.1700629 L121.327874,25 C72.2157403,50.4489042 34.636134,92.4370665 14.8117506,144.458067 C-6.55943168,200.577201 -4.75398771,261.619156 19.9035083,316.387424 C57.3715422,399.614953 139.68153,449.020231 225.71905,448.999994 C254.580796,448.999994 283.84826,443.368855 312,431.646168 L293.661558,392.531759 Z" id="Combined-Shape"></path>
                    </g>
                </g>
            </g>
        </g>
    </g>
</svg>
