<?xml version="1.0" encoding="UTF-8" standalone="no"?>
<svg xmlns:dc="http://purl.org/dc/elements/1.1/" xmlns:cc="http://creativecommons.org/ns#" xmlns:rdf="http://www.w3.org/1999/02/22-rdf-syntax-ns#" xmlns:svg="http://www.w3.org/2000/svg" xmlns="http://www.w3.org/2000/svg"
  viewBox="0 0 118.45333 118.45333" height="118.45333" width="118.45333" xml:space="preserve" id="wt-logo-full-color" version="1.1">
  <metadata id="metadata8">
    <rdf:RDF>
      <cc:Work rdf:about="">
        <dc:format>image/svg+xml</dc:format>
        <dc:type rdf:resource="http://purl.org/dc/dcmitype/StillImage" />
      </cc:Work>
    </rdf:RDF>
  </metadata>
  <defs id="defs6" />
  <g transform="matrix(1.3333333,0,0,-1.3333333,0,118.45333)" id="g10">
    <g transform="scale(0.1)" id="g12">
      <path id="path14" style="fill:#7bd2bf;fill-opacity:1;fill-rule:nonzero;stroke:none" d="M 849.578,626.156 C 778.004,785.477 618.895,888.41 444.172,888.41 c -45.918,0 -90.895,-7.101 -134.328,-21 l 36.89,-77.976 c 31.637,8.992 64.258,13.648 97.438,13.648 66.746,0 130.586,-18.797 185.57,-52.012 L 530.973,399.953 424.398,624.652 330.563,398.938 261.965,559.762 219.473,469.355 325.102,220.82 424.816,441.531 550.363,172.871 718.328,675.719 c 21.352,-25.203 39.481,-53.516 53.41,-84.528 39.27,-87.429 42.176,-184.937 8.121,-274.539 -26.078,-68.601 -71.507,-126.246 -130.586,-167.16 l 36.891,-78.0154 c 78.957,50.9614 139.438,125.4064 173.457,214.8674 42.141,110.914 38.57,231.594 -10.043,339.812" />
      <path id="path16" style="fill:#3f8b99;fill-opacity:1;fill-rule:nonzero;stroke:none" d="M 579.051,111.613 C 401.285,39.5508 196.328,120.715 117.086,297.078 77.8164,384.547 74.9453,482.02 108.969,571.621 c 31.148,81.934 89.844,148.223 166.492,189 l -36.223,77.418 C 142.391,787.746 68.2969,704.762 29.2031,601.93 -12.9375,491.016 -9.36719,370.371 39.2461,262.113 113.133,97.6133 275.426,-0.0351563 445.07,0 501.98,0 559.695,11.1289 615.207,34.3008 l -36.156,77.3122" />
    </g>
  </g>
</svg>